<?xml version="1.0" encoding="utf-8"?>
<!-- Generator: Adobe Illustrator 24.0.3, SVG Export Plug-In . SVG Version: 6.00 Build 0)  -->
<svg version="1.1" id="Layer_1" xmlns="http://www.w3.org/2000/svg" xmlns:xlink="http://www.w3.org/1999/xlink" x="0px" y="0px"
	 viewBox="0 0 56.1 69.3" style="enable-background:new 0 0 56.1 69.3;" xml:space="preserve">
<style type="text/css">
	.st0{fill:#0070FE;}
</style>
<g>
	<g>
		<g>
			<path class="st0" d="M55.9,8.5l0-0.8l-0.6-0.4C55,7.2,48.5,3.2,38.6,1.1C29.4-0.8,15.4-1.2,0.8,7.3L0.1,7.7l0,0.8
				C0,9-0.6,21,2.4,34.6c4,18.2,12.8,30.1,25.4,34.6l0.4,0.1l0.4-0.1c0.3-0.1,7.8-2,14.9-10.6c4.1-5,7.3-11.2,9.4-18.4
				C55.6,31.1,56.6,20.5,55.9,8.5z M41.4,56.5c-5.6,6.8-11.5,9.2-13.1,9.7c-6.2-2.3-11.4-6.6-15.4-12.9C9.6,48.1,7,41.6,5.3,34
				C2.8,22.8,2.9,12.3,3,9.5C13.8,3.3,25.6,1.5,37.9,4C45.6,5.6,51.2,8.4,53,9.4C53.7,23.8,52.2,43.3,41.4,56.5z"/>
		</g>
	</g>
</g>
<g>
	<g>
		<g>
			<g>
				<path class="st0" d="M29.4,32.1c-0.6,0-1.2-0.3-1.7-0.7l-4.1-4.5c-0.8-0.9-0.8-2.3,0.2-3.2c0.9-0.8,2.3-0.8,3.2,0.2l2.4,2.6
					l9.8-11.2c0.8-0.9,2.2-1,3.2-0.2c0.9,0.8,1,2.2,0.2,3.2L31.1,31.4C30.6,31.8,30,32.1,29.4,32.1C29.4,32.1,29.4,32.1,29.4,32.1z"
					/>
			</g>
		</g>
	</g>
</g>
<g>
	<g>
		<g>
			<path class="st0" d="M28.9,36.3c-5.1,0-9.2-4.1-9.2-9.2s4.1-9.2,9.2-9.2s9.2,4.1,9.2,9.2S34,36.3,28.9,36.3z M28.9,18.3
				c-4.8,0-8.7,3.9-8.7,8.7s3.9,8.7,8.7,8.7s8.7-3.9,8.7-8.7S33.7,18.3,28.9,18.3z"/>
			<path class="st0" d="M28.9,36.6c-5.3,0-9.6-4.3-9.6-9.6s4.3-9.6,9.6-9.6s9.6,4.3,9.6,9.6S34.2,36.6,28.9,36.6z M28.9,18.7
				c-4.6,0-8.4,3.7-8.4,8.4s3.7,8.4,8.4,8.4s8.4-3.7,8.4-8.4S33.5,18.7,28.9,18.7z"/>
		</g>
	</g>
</g>
<g>
	<g>
		<g>
			<path class="st0" d="M28.9,39.5c-6.9,0-12.5-5.6-12.5-12.5S22,14.6,28.9,14.6S41.4,20.2,41.4,27S35.8,39.5,28.9,39.5z M28.9,15.1
				c-6.6,0-12,5.4-12,12s5.4,12,12,12s12-5.4,12-12S35.5,15.1,28.9,15.1z"/>
			<path class="st0" d="M28.9,39.9c-7.1,0-12.8-5.8-12.8-12.8s5.8-12.8,12.8-12.8S41.7,20,41.7,27S36,39.9,28.9,39.9z M28.9,15.4
				c-6.4,0-11.6,5.2-11.6,11.6s5.2,11.6,11.6,11.6S40.5,33.4,40.5,27S35.3,15.4,28.9,15.4z"/>
		</g>
	</g>
</g>
<g>
	<g>
		<g>
			<path class="st0" d="M28.9,42.8c-8.7,0-15.7-7-15.7-15.7s7-15.7,15.7-15.7s15.7,7,15.7,15.7S37.5,42.8,28.9,42.8z M28.9,11.8
				c-8.4,0-15.2,6.8-15.2,15.2s6.8,15.2,15.2,15.2S44.1,35.4,44.1,27S37.3,11.8,28.9,11.8z"/>
			<path class="st0" d="M28.9,43.1c-8.9,0-16.1-7.2-16.1-16.1S20,11,28.9,11S45,18.2,45,27S37.8,43.1,28.9,43.1z M28.9,12.2
				C20.7,12.2,14,18.9,14,27s6.7,14.8,14.8,14.8S43.7,35.2,43.7,27S37.1,12.2,28.9,12.2z"/>
		</g>
	</g>
</g>
</svg>
