<?xml version="1.0" encoding="utf-8"?>
<!-- Generator: Adobe Illustrator 26.0.1, SVG Export Plug-In . SVG Version: 6.00 Build 0)  -->
<svg version="1.1" id="Layer_1" xmlns="http://www.w3.org/2000/svg" xmlns:xlink="http://www.w3.org/1999/xlink" x="0px" y="0px"
	 viewBox="0 0 56.6 69.8" style="enable-background:new 0 0 56.6 69.8;" xml:space="preserve">
<style type="text/css">
	.st0{fill:#0070FE;}
</style>
<path class="st0" d="M28.5,69.8l-0.4-0.2C15.4,65.2,6.5,53.2,2.4,34.8C0.5,26.2-0.2,17.4,0.1,8.6V7.8l0.7-0.4
	c11.5-6.7,25.1-9,38.1-6.2c5.9,1.1,11.6,3.3,16.8,6.2l0.7,0.4v0.8c0.6,12.1-0.4,22.8-3,31.9c-1.9,6.8-5.1,13.1-9.5,18.6
	c-7.2,8.7-14.7,10.6-15,10.7L28.5,69.8z M3,9.5c-0.2,8.3,0.6,16.6,2.4,24.8c1.4,6.9,4,13.5,7.7,19.5c3.6,5.9,9.1,10.5,15.6,13
	c1.6-0.5,7.5-2.9,13.2-9.8C52.6,43.8,54.1,24.1,53.4,9.6C48.7,7,43.5,5.2,38.2,4.1C26.2,1.5,13.7,3.5,3,9.5L3,9.5z"/>
<path class="st0" d="M39.6,13.8l0.2,5.1c-2.9-3.4-7.1-5.4-11.6-5.4c-7.4,0-13.6,5.3-14.9,12.4c-0.1,0.4,0.2,0.8,0.6,0.9
	c0,0,0.1,0,0.1,0h3c0.3,0,0.6-0.2,0.7-0.6c1.4-5.8,7.2-9.3,13-8c2.6,0.6,4.9,2.2,6.4,4.5L31,22.4c-0.4,0-0.8,0.3-0.8,0.7
	c0,0,0,0,0,0V26c0,0.4,0.3,0.7,0.7,0.7h12.3c0.4,0,0.7-0.3,0.7-0.7V13.8c0-0.4-0.3-0.7-0.7-0.7h-2.9C39.9,13,39.6,13.4,39.6,13.8
	C39.6,13.8,39.6,13.8,39.6,13.8z M28.2,39.5c-3.6,0-6.9-1.8-8.9-4.8l6.2,0.3c0.4,0,0.7-0.3,0.8-0.7c0,0,0,0,0,0v-2.9
	c0-0.4-0.3-0.7-0.7-0.7H13.3c-0.4,0-0.7,0.3-0.7,0.7v12.3c0,0.4,0.3,0.7,0.7,0.7h2.9c0.4,0,0.7-0.3,0.7-0.7c0,0,0,0,0,0l-0.3-5.1
	c2.9,3.4,7.1,5.3,11.6,5.3c7.4,0,13.6-5.3,14.9-12.4c0.1-0.4-0.2-0.8-0.6-0.9c0,0-0.1,0-0.1,0h-3c-0.3,0-0.6,0.2-0.7,0.6
	C37.6,36.1,33.2,39.5,28.2,39.5z"/>
</svg>
