<?xml version="1.0" encoding="utf-8"?>
<!-- Generator: Adobe Illustrator 24.0.3, SVG Export Plug-In . SVG Version: 6.00 Build 0)  -->
<svg version="1.1" id="Layer_1" xmlns="http://www.w3.org/2000/svg" xmlns:xlink="http://www.w3.org/1999/xlink" x="0px" y="0px"
	 viewBox="0 0 56.5 69.7" style="enable-background:new 0 0 56.5 69.7;" xml:space="preserve">
<style type="text/css">
	.st0{fill:#0070FE;}
</style>
<path class="st0" d="M28.5,69.7l-0.4-0.2C15.4,65.1,6.5,53.1,2.4,34.8C0.5,26.1-0.2,17.3,0.1,8.5V7.7l0.7-0.4
	c17-9.7,37.9-9.7,54.9,0l0.6,0.4v0.8c0.6,12.1-0.4,22.8-3,31.9c-1.9,6.8-5.1,13.1-9.5,18.6c-7.2,8.7-14.7,10.6-15,10.7L28.5,69.7z
	 M3,9.4C2.8,17.7,3.6,26,5.3,34.2c1.4,6.9,4,13.5,7.7,19.5c3.6,5.9,9.1,10.5,15.6,13c1.6-0.5,7.5-2.9,13.2-9.8
	C52.6,43.7,54.1,24,53.4,9.5C48.6,6.9,43.5,5,38.2,4C26.2,1.4,13.7,3.3,3,9.4z"/>
<path class="st0" d="M25.8,26.8H13.9c-0.5,0-0.8-0.4-0.8-0.8c0,0,0,0,0,0V14.1c0-0.5,0.4-0.8,0.8-0.8c0,0,0,0,0,0h11.9
	c0.5,0,0.9,0.4,0.9,0.8v0V26C26.7,26.5,26.3,26.8,25.8,26.8z M14.8,25.1H25V14.9H14.8V25.1z"/>
<path class="st0" d="M25.8,44.3H13.9c-0.5,0-0.8-0.4-0.8-0.8V31.6c0-0.5,0.4-0.8,0.8-0.8c0,0,0,0,0,0h11.9c0.5,0,0.9,0.4,0.9,0.8v0
	v11.9C26.7,43.9,26.3,44.3,25.8,44.3z M14.8,42.6H25V32.4H14.8V42.6z"/>
<path class="st0" d="M43.5,26.8H31.5c-0.5,0-0.9-0.4-0.9-0.8v0V14.1c0-0.5,0.4-0.8,0.9-0.8l0,0h11.9c0.5,0,0.8,0.4,0.8,0.8V26
	C44.2,26.4,43.9,26.8,43.5,26.8z M32.4,25.1h10.2V14.9H32.4V25.1z"/>
<path class="st0" d="M43.5,44.3H31.5c-0.5,0-0.8-0.4-0.9-0.8V31.6c0-0.5,0.4-0.8,0.9-0.8l0,0h11.9c0.5,0,0.8,0.4,0.8,0.8v11.9
	C44.3,43.9,43.9,44.3,43.5,44.3z M32.4,42.6h10.2V32.4H32.4V42.6z"/>
<path class="st0" d="M38.1,40.1c-0.3,0-0.6-0.1-0.8-0.4l-2.8-3.1c-0.4-0.5-0.4-1.2,0.1-1.6c0.5-0.4,1.2-0.4,1.6,0.1l1.9,2.2l7-8.1
	c0.4-0.5,1.1-0.5,1.6-0.1c0.5,0.4,0.5,1.1,0.1,1.6l0,0l-7.9,9C38.8,39.9,38.5,40.1,38.1,40.1L38.1,40.1z"/>
<path class="st0" d="M20.7,22.6c-0.3,0-0.6-0.1-0.9-0.4L17,19.2c-0.4-0.5-0.3-1.2,0.2-1.6c0.4-0.4,1.1-0.3,1.5,0.1l1.9,2.2l7-8.1
	c0.4-0.5,1.1-0.5,1.6-0.1c0.5,0.4,0.5,1.1,0.1,1.6l0,0l-7.9,9C21.3,22.5,21,22.7,20.7,22.6L20.7,22.6z"/>
<path class="st0" d="M20.7,40.1c-0.3,0-0.6-0.1-0.9-0.4L17,36.6c-0.4-0.5-0.4-1.2,0.1-1.6c0.5-0.4,1.2-0.4,1.6,0.1l1.9,2.2l7-8.1
	c0.4-0.5,1.1-0.5,1.6-0.1s0.5,1.1,0.1,1.6l-7.9,9C21.3,39.9,21,40.1,20.7,40.1L20.7,40.1z"/>
</svg>
