<?xml version="1.0" encoding="utf-8"?>
<!-- Generator: Adobe Illustrator 25.2.3, SVG Export Plug-In . SVG Version: 6.00 Build 0)  -->
<svg version="1.1" id="Layer_1" xmlns="http://www.w3.org/2000/svg" xmlns:xlink="http://www.w3.org/1999/xlink" x="0px" y="0px"
	 viewBox="0 0 56.3 69.6" style="enable-background:new 0 0 56.3 69.6;" xml:space="preserve">
<style type="text/css">
	.st0{fill:#0070FE;}
	.st1{fill:none;stroke:#0070FE;stroke-width:2;stroke-miterlimit:10;}
</style>
<path class="st0" d="M28.4,69.6L28,69.5C15.3,65,6.5,53,2.4,34.7C0.5,26.1-0.2,17.3,0.1,8.6V7.8l0.7-0.4c11.4-6.7,25-8.9,38-6.2
	c5.9,1.1,11.5,3.2,16.7,6.2l0.6,0.4v0.8c0.6,12-0.4,22.7-3,31.8c-1.8,6.8-5.1,13.1-9.4,18.5c-7.1,8.6-14.6,10.6-14.9,10.7H28.4z
	 M3,9.5C2.8,17.8,3.6,26,5.3,34.1c1.4,6.9,4,13.4,7.7,19.4c3.6,6,9,10.5,15.5,13c1.6-0.5,7.5-2.9,13.1-9.7
	C52.4,43.6,53.9,23.9,53.2,9.5C48.5,6.9,43.4,5.1,38.1,4C26.1,1.5,13.6,3.4,3,9.5z"/>
<circle class="st1" cx="28.1" cy="31.6" r="16.6"/>
<line class="st1" x1="28.1" y1="31.6" x2="16.6" y2="19.7"/>
<line class="st1" x1="41.2" y1="41.9" x2="28.1" y2="31.6"/>
<line class="st1" x1="43.1" y1="24.4" x2="28.1" y2="31.6"/>
<line class="st1" x1="36.2" y1="17.1" x2="28.1" y2="31.6"/>
<line class="st1" x1="26.8" y1="15" x2="28.1" y2="31.6"/>
</svg>
