<?xml version="1.0" encoding="utf-8"?>
<!-- Generator: Adobe Illustrator 24.0.3, SVG Export Plug-In . SVG Version: 6.00 Build 0)  -->
<svg version="1.1" id="Layer_1" xmlns="http://www.w3.org/2000/svg" xmlns:xlink="http://www.w3.org/1999/xlink" x="0px" y="0px"
	 viewBox="0 0 56.6 69.8" style="enable-background:new 0 0 56.6 69.8;" xml:space="preserve">
<style type="text/css">
	.st0{fill:#0070FE;}
</style>
<path class="st0" d="M28.5,69.8l-0.4-0.2C15.4,65.2,6.5,53.2,2.4,34.8C0.5,26.2-0.2,17.4,0.1,8.6V7.8l0.7-0.4
	c11.5-6.7,25.1-9,38.1-6.2c5.9,1.1,11.6,3.3,16.8,6.2l0.7,0.4v0.8c0.6,12.1-0.4,22.8-3,31.9c-1.9,6.8-5.1,13.1-9.5,18.6
	c-7.2,8.7-14.7,10.6-15,10.7L28.5,69.8z M3,9.5c-0.2,8.3,0.6,16.6,2.4,24.8c1.4,6.9,4,13.5,7.7,19.5c3.6,5.9,9.1,10.5,15.6,13
	c1.6-0.5,7.5-2.9,13.2-9.8C52.6,43.8,54.1,24.1,53.4,9.6C48.7,7,43.5,5.2,38.2,4.1C26.2,1.5,13.7,3.5,3,9.5L3,9.5z"/>
<path class="st0" d="M28.4,38.3c1.4,0,2.5-1.1,2.5-2.4c0-0.8-0.4-1.5-1-2v-2c0-0.8-0.7-1.5-1.5-1.5s-1.5,0.7-1.5,1.5v2
	c-0.6,0.5-1,1.2-1,2C25.9,37.2,27,38.3,28.4,38.3z"/>
<path class="st0" d="M36.9,25.3v-5.6c0-4.7-3.8-8.5-8.5-8.5s-8.5,3.8-8.5,8.5v5.6c-1.7,0.2-3,1.7-3,3.5v12.1c0,1.9,1.6,3.5,3.5,3.4
	h16c1.9,0,3.5-1.5,3.5-3.4v-12C39.9,27.1,38.6,25.6,36.9,25.3z M22.9,25.3v-5.6c0.1-3.1,2.7-5.4,5.8-5.3c2.9,0.1,5.2,2.4,5.3,5.3
	v5.5L22.9,25.3z M19.9,28.8c0-0.3,0.2-0.5,0.5-0.5l0,0h16c0.3,0,0.5,0.2,0.5,0.5c0,0,0,0,0,0v12c0,0.3-0.2,0.5-0.5,0.5c0,0,0,0,0,0
	h-16c-0.3,0-0.5-0.2-0.5-0.5l0,0L19.9,28.8z"/>
</svg>
