<?xml version="1.0" encoding="utf-8"?>
<!-- Generator: Adobe Illustrator 26.0.1, SVG Export Plug-In . SVG Version: 6.00 Build 0)  -->
<svg version="1.1" id="Layer_1" xmlns="http://www.w3.org/2000/svg" xmlns:xlink="http://www.w3.org/1999/xlink" x="0px" y="0px"
	 viewBox="0 0 56.3 69.6" style="enable-background:new 0 0 56.3 69.6;" xml:space="preserve">
<style type="text/css">
	.st0{fill:#0070FE;}
</style>
<path class="st0" d="M28.4,69.6L28,69.5C15.3,65,6.5,53,2.4,34.7C0.5,26.1-0.2,17.3,0.1,8.6V7.8l0.7-0.4c11.4-6.7,25-8.9,38-6.2
	c5.9,1.1,11.5,3.2,16.7,6.2l0.6,0.4v0.8c0.6,12-0.4,22.7-3,31.8c-1.8,6.8-5.1,13.1-9.4,18.5c-7.1,8.6-14.6,10.6-14.9,10.7H28.4z
	 M3,9.5C2.8,17.8,3.6,26,5.3,34.1c1.4,6.9,4,13.4,7.7,19.4c3.6,6,9,10.5,15.5,13c1.6-0.5,7.5-2.9,13.1-9.7
	C52.4,43.6,53.9,23.9,53.2,9.5C48.5,6.9,43.4,5.1,38.1,4C26.1,1.5,13.6,3.4,3,9.5z"/>
<path class="st0" d="M34.4,28.2H22v4.1h12.4V28.2z M40.1,18.4l-6.3-6.3c-0.3-0.3-0.7-0.5-1.1-0.5h-0.4v8.3h8.3v-0.4
	C40.6,19.1,40.4,18.7,40.1,18.4z M30.2,20.4v-8.8H17.3c-0.9,0-1.6,0.7-1.6,1.6v30c0,0.9,0.7,1.6,1.6,1.6H39c0.9,0,1.6-0.7,1.6-1.6
	V22h-8.8C30.9,22,30.2,21.3,30.2,20.4z M19.9,16.3c0-0.3,0.2-0.5,0.5-0.5h5.2c0.3,0,0.5,0.2,0.5,0.5v1c0,0.3-0.2,0.5-0.5,0.5h-5.2
	c-0.3,0-0.5-0.2-0.5-0.5V16.3z M19.9,20.4c0-0.3,0.2-0.5,0.5-0.5h5.2c0.3,0,0.5,0.2,0.5,0.5v1c0,0.3-0.2,0.5-0.5,0.5h-5.2
	c-0.3,0-0.5-0.2-0.5-0.5V20.4z M36.4,40.1c0,0.3-0.2,0.5-0.5,0.5h-5.2c-0.3,0-0.5-0.2-0.5-0.5v-1c0-0.3,0.2-0.5,0.5-0.5h5.2
	c0.3,0,0.5,0.2,0.5,0.5V40.1z M36.4,27.2v6.2c0,0.6-0.5,1-1,1H20.9c-0.6,0-1-0.5-1-1v-6.2c0-0.6,0.5-1,1-1h14.5
	C36,26.1,36.4,26.6,36.4,27.2z"/>
</svg>
