<?xml version="1.0" encoding="utf-8"?>
<!-- Generator: Adobe Illustrator 16.0.5, SVG Export Plug-In . SVG Version: 6.00 Build 0)  -->
<!DOCTYPE svg PUBLIC "-//W3C//DTD SVG 1.1//EN" "http://www.w3.org/Graphics/SVG/1.1/DTD/svg11.dtd">
<svg version="1.1" id="Layer_1" xmlns="http://www.w3.org/2000/svg" xmlns:xlink="http://www.w3.org/1999/xlink" x="0px" y="0px"
	 width="51.07px" height="63.051px" viewBox="0 0 51.07 63.051" enable-background="new 0 0 51.07 63.051" xml:space="preserve">
<g>
	<g>
		<defs>
			<rect id="SVGID_5_" x="-28.002" y="-2181.237" width="1520" height="7897.601"/>
		</defs>
		<clipPath id="SVGID_2_">
			<use xlink:href="#SVGID_5_"  overflow="visible"/>
		</clipPath>
	</g>
	<g>
		<defs>
			<rect id="SVGID_47_" x="-28.002" y="-2181.237" width="1520" height="7897.601"/>
		</defs>
		<clipPath id="SVGID_4_">
			<use xlink:href="#SVGID_47_"  overflow="visible"/>
		</clipPath>
	</g>
	<g>
		<defs>
			<rect id="SVGID_54_" x="-28.002" y="-2181.237" width="1520" height="7897.601"/>
		</defs>
		<clipPath id="SVGID_6_">
			<use xlink:href="#SVGID_54_"  overflow="visible"/>
		</clipPath>
	</g>
	<g>
		<defs>
			<rect id="SVGID_60_" x="-28.002" y="-2181.237" width="1520" height="7897.601"/>
		</defs>
		<clipPath id="SVGID_8_">
			<use xlink:href="#SVGID_60_"  overflow="visible"/>
		</clipPath>
	</g>
	<g>
		<defs>
			<rect id="SVGID_88_" x="-28.002" y="-2181.237" width="1520" height="7897.601"/>
		</defs>
		<clipPath id="SVGID_10_">
			<use xlink:href="#SVGID_88_"  overflow="visible"/>
		</clipPath>
	</g>
	<g>
		<defs>
			<rect id="SVGID_90_" x="-28.002" y="-2181.237" width="1520" height="7897.601"/>
		</defs>
		<clipPath id="SVGID_12_">
			<use xlink:href="#SVGID_90_"  overflow="visible"/>
		</clipPath>
	</g>
	<g>
		<defs>
			<rect id="SVGID_92_" x="-28.002" y="-2181.237" width="1520" height="7897.601"/>
		</defs>
		<clipPath id="SVGID_14_">
			<use xlink:href="#SVGID_92_"  overflow="visible"/>
		</clipPath>
	</g>
	<g>
		<defs>
			<rect id="SVGID_94_" x="-28.002" y="-2181.237" width="1520" height="7897.601"/>
		</defs>
		<clipPath id="SVGID_16_">
			<use xlink:href="#SVGID_94_"  overflow="visible"/>
		</clipPath>
	</g>
	<g>
		<defs>
			<rect id="SVGID_99_" x="-28.002" y="-2181.237" width="1520" height="7897.601"/>
		</defs>
		<clipPath id="SVGID_18_">
			<use xlink:href="#SVGID_99_"  overflow="visible"/>
		</clipPath>
	</g>
	<g>
		<defs>
			<rect id="SVGID_101_" x="-28.002" y="-2181.237" width="1520" height="7897.601"/>
		</defs>
		<clipPath id="SVGID_20_">
			<use xlink:href="#SVGID_101_"  overflow="visible"/>
		</clipPath>
	</g>
	<g>
		<defs>
			<rect id="SVGID_112_" x="-28.002" y="-2181.237" width="1520" height="7897.601"/>
		</defs>
		<clipPath id="SVGID_22_">
			<use xlink:href="#SVGID_112_"  overflow="visible"/>
		</clipPath>
	</g>
	<g>
		<defs>
			<rect id="SVGID_114_" x="-28.002" y="-2181.237" width="1520" height="7897.601"/>
		</defs>
		<clipPath id="SVGID_24_">
			<use xlink:href="#SVGID_114_"  overflow="visible"/>
		</clipPath>
	</g>
	<g>
		<defs>
			<rect id="SVGID_116_" x="-28.002" y="-2181.237" width="1520" height="7897.601"/>
		</defs>
		<clipPath id="SVGID_26_">
			<use xlink:href="#SVGID_116_"  overflow="visible"/>
		</clipPath>
	</g>
	<g>
		<defs>
			<rect id="SVGID_118_" x="-28.002" y="-2181.237" width="1520" height="7897.601"/>
		</defs>
		<clipPath id="SVGID_28_">
			<use xlink:href="#SVGID_118_"  overflow="visible"/>
		</clipPath>
	</g>
	<g>
		<defs>
			<rect id="SVGID_120_" x="-28.002" y="-2181.237" width="1520" height="7897.601"/>
		</defs>
		<clipPath id="SVGID_30_">
			<use xlink:href="#SVGID_120_"  overflow="visible"/>
		</clipPath>
	</g>
	<g>
		<defs>
			<rect id="SVGID_122_" x="-28.002" y="-2181.237" width="1520" height="7897.601"/>
		</defs>
		<clipPath id="SVGID_32_">
			<use xlink:href="#SVGID_122_"  overflow="visible"/>
		</clipPath>
	</g>
	<g>
		<defs>
			<rect id="SVGID_130_" x="-28.002" y="-2181.237" width="1520" height="7897.601"/>
		</defs>
		<clipPath id="SVGID_34_">
			<use xlink:href="#SVGID_130_"  overflow="visible"/>
		</clipPath>
	</g>
	<g>
		<defs>
			<rect id="SVGID_132_" x="-28.002" y="-2181.237" width="1520" height="7897.601"/>
		</defs>
		<clipPath id="SVGID_36_">
			<use xlink:href="#SVGID_132_"  overflow="visible"/>
		</clipPath>
	</g>
	<g>
		<defs>
			<rect id="SVGID_134_" x="-28.002" y="-2181.237" width="1520" height="7897.601"/>
		</defs>
		<clipPath id="SVGID_38_">
			<use xlink:href="#SVGID_134_"  overflow="visible"/>
		</clipPath>
	</g>
	<g>
		<defs>
			<rect id="SVGID_136_" x="-28.002" y="-2181.237" width="1520" height="7897.601"/>
		</defs>
		<clipPath id="SVGID_40_">
			<use xlink:href="#SVGID_136_"  overflow="visible"/>
		</clipPath>
	</g>
	<g>
		<defs>
			<rect id="SVGID_141_" x="-28.002" y="-2181.237" width="1520" height="7897.601"/>
		</defs>
		<clipPath id="SVGID_42_">
			<use xlink:href="#SVGID_141_"  overflow="visible"/>
		</clipPath>
	</g>
	<g>
		<defs>
			<rect id="SVGID_143_" x="-28.002" y="-2181.237" width="1520" height="7897.601"/>
		</defs>
		<clipPath id="SVGID_44_">
			<use xlink:href="#SVGID_143_"  overflow="visible"/>
		</clipPath>
	</g>
	<g>
		<defs>
			<rect id="SVGID_145_" x="-28.002" y="-2181.237" width="1520" height="7897.601"/>
		</defs>
		<clipPath id="SVGID_46_">
			<use xlink:href="#SVGID_145_"  overflow="visible"/>
		</clipPath>
	</g>
	<g>
		<defs>
			<rect id="SVGID_147_" x="-28.002" y="-2181.237" width="1520" height="7897.601"/>
		</defs>
		<clipPath id="SVGID_48_">
			<use xlink:href="#SVGID_147_"  overflow="visible"/>
		</clipPath>
	</g>
	<g>
		<defs>
			<rect id="SVGID_149_" x="-28.002" y="-2181.237" width="1520" height="7897.601"/>
		</defs>
		<clipPath id="SVGID_50_">
			<use xlink:href="#SVGID_149_"  overflow="visible"/>
		</clipPath>
	</g>
	<g>
		<defs>
			<rect id="SVGID_151_" x="-28.002" y="-2181.237" width="1520" height="7897.601"/>
		</defs>
		<clipPath id="SVGID_51_">
			<use xlink:href="#SVGID_151_"  overflow="visible"/>
		</clipPath>
	</g>
	<g>
		<defs>
			<rect id="SVGID_153_" x="-28.002" y="-2181.237" width="1520" height="7897.601"/>
		</defs>
		<clipPath id="SVGID_52_">
			<use xlink:href="#SVGID_153_"  overflow="visible"/>
		</clipPath>
	</g>
	<g>
		<defs>
			<rect id="SVGID_155_" x="-28.002" y="-2181.237" width="1520" height="7897.601"/>
		</defs>
		<clipPath id="SVGID_53_">
			<use xlink:href="#SVGID_155_"  overflow="visible"/>
		</clipPath>
	</g>
	<path fill="#0070FE" d="M25.736,63.051l-0.383-0.136C13.885,58.868,5.878,47.989,2.198,31.456C-0.542,19.142,0.044,8.19,0.07,7.729
		l0.042-0.722l0.625-0.365C14.028-1.096,26.78-0.685,35.136,1.023c9.044,1.849,14.891,5.489,15.135,5.644l0.59,0.371l0.037,0.696
		c0.586,10.915-0.32,20.594-2.694,28.767c-1.917,6.601-4.79,12.246-8.539,16.779c-6.461,7.81-13.248,9.598-13.533,9.67
		L25.736,63.051z M2.731,8.603C2.651,11.24,2.562,20.729,4.84,30.927c1.554,6.957,3.89,12.876,6.941,17.592
		c3.667,5.668,8.395,9.604,14.056,11.707c1.429-0.479,6.798-2.602,11.883-8.822C47.485,39.456,48.866,21.68,48.246,8.601
		c-1.667-0.934-6.746-3.542-13.75-4.96C23.286,1.375,12.603,3.044,2.731,8.603"/>
	<path fill="#0070FE" d="M28.221,31.465c0,1.391-1.128,2.519-2.519,2.519c-1.393,0-2.521-1.128-2.521-2.519s1.128-2.52,2.521-2.52
		C27.092,28.946,28.221,30.074,28.221,31.465"/>
	<path fill="#0070FE" d="M25.701,28.046c0.9,0,0.54-1.08,0.719-1.8c0.181-0.719,1.8-5.398,1.8-6.479s-0.54-3.419-2.339-3.419
		c-1.8,0-2.699,1.08-2.699,3.419s1.62,5.039,1.62,6.479C24.801,27.686,25.161,28.046,25.701,28.046"/>
	<path fill="#0070FE" d="M25.8,40.057c-8.135,0-14.753-6.618-14.753-14.753S17.666,10.551,25.8,10.551
		c8.135,0,14.754,6.618,14.754,14.753S33.936,40.057,25.8,40.057 M25.8,12.345c-7.146,0-12.958,5.813-12.958,12.958
		S18.655,38.261,25.8,38.261c7.145,0,12.958-5.812,12.958-12.958S32.945,12.345,25.8,12.345"/>
</g>
</svg>
