<?xml version="1.0" encoding="utf-8"?>
<!-- Generator: Adobe Illustrator 26.5.0, SVG Export Plug-In . SVG Version: 6.00 Build 0)  -->
<svg version="1.1" id="Layer_1" xmlns="http://www.w3.org/2000/svg" xmlns:xlink="http://www.w3.org/1999/xlink" x="0px" y="0px"
	 viewBox="0 0 136 168.2" style="enable-background:new 0 0 136 168.2;" xml:space="preserve">
<style type="text/css">
	.st0{fill:#231F20;}
	.st1{clip-path:url(#SVGID_00000168835573970838528630000002893889657661085074_);}
	.st2{fill:none;stroke:#231F20;stroke-width:1.41;stroke-miterlimit:10;}
	.st3{fill-rule:evenodd;clip-rule:evenodd;fill:#231F20;}
	.st4{fill:#0070FE;}
	.st5{fill-rule:evenodd;clip-rule:evenodd;fill:#0070FE;}
</style>
<path class="st0" d="M345.8-439.6v-1.8c0-0.3,0.2-0.5,0.4-0.5c0,0,0.1,0,0.1,0h1.5c0.3,0,0.5,0.2,0.5,0.4c0,0,0,0.1,0,0.1v1.6
	c0,3.3,1.6,5,4.9,5h5.2c3.2,0,4.9-1.7,4.9-5v-2.1c0-1.4-0.6-2.7-1.8-3.5c-1.3-0.9-2.8-1.5-4.4-1.8c-1.7-0.4-3.4-0.8-5.1-1.1
	c-1.6-0.4-3.1-1.1-4.4-2.2c-1.2-1.1-1.9-2.7-1.8-4.3v-2.8c-0.1-1.9,0.6-3.8,1.9-5.2c1.4-1.3,3.2-2,5.1-1.9h5.8
	c1.9-0.1,3.8,0.6,5.2,1.9c1.3,1.4,2,3.3,1.9,5.2v1.4c0,0.3-0.1,0.5-0.4,0.6c-0.1,0-0.1,0-0.2,0h-1.5c-0.3,0-0.5-0.1-0.5-0.4
	c0-0.1,0-0.1,0-0.2v-1.2c0-3.3-1.6-5-4.9-5h-5.2c-3.2,0-4.8,1.7-4.8,5.1v2.5c0,2.3,2,3.8,6.1,4.6c1.7,0.3,3.4,0.7,5.1,1.2
	c1.6,0.4,3.1,1.2,4.4,2.4c1.2,1.2,1.9,2.9,1.8,4.6v2.5c0.1,1.9-0.6,3.8-1.9,5.2c-1.4,1.3-3.3,2-5.2,1.9h-5.9
	c-1.9,0.1-3.8-0.6-5.1-1.9C346.4-435.8,345.7-437.7,345.8-439.6z"/>
<path class="st0" d="M386.8-432.5h-6.2c-1.9,0.1-3.8-0.6-5.1-1.9c-1.3-1.4-2-3.3-1.9-5.2v-18c-0.1-1.9,0.6-3.8,1.9-5.2
	c1.4-1.3,3.2-2,5.1-1.9h6.2c1.9-0.1,3.8,0.6,5.1,1.9c1.3,1.4,2,3.3,1.9,5.2v18c0.1,1.9-0.6,3.8-1.9,5.2
	C390.6-433.1,388.7-432.4,386.8-432.5z M380.8-434.8h5.7c1.3,0.1,2.6-0.4,3.5-1.3c0.9-1,1.3-2.3,1.2-3.7v-17.8
	c0.1-1.3-0.3-2.7-1.2-3.7c-0.9-0.9-2.2-1.4-3.5-1.3h-5.7c-1.3-0.1-2.6,0.4-3.5,1.3c-0.9,1-1.3,2.3-1.2,3.7v17.8
	c-0.1,1.3,0.3,2.6,1.2,3.6C378.3-435.1,379.6-434.7,380.8-434.8L380.8-434.8z"/>
<path class="st0" d="M414.7-432.5h-6.3c-1.9,0.1-3.8-0.6-5.1-1.9c-1.3-1.4-2-3.3-1.9-5.2v-18c-0.1-1.9,0.6-3.8,1.9-5.2
	c1.4-1.3,3.2-2,5.1-1.9h6.3c1.9-0.1,3.8,0.6,5.1,1.9c1.3,1.4,2,3.3,1.9,5.2v2.4c0,0.4-0.2,0.6-0.5,0.6h-1.4c-0.4,0-0.5-0.2-0.5-0.6
	v-2.4c0.1-1.3-0.3-2.7-1.2-3.7c-0.9-0.9-2.2-1.4-3.5-1.3h-5.9c-1.3-0.1-2.6,0.4-3.5,1.3c-0.9,1-1.3,2.3-1.2,3.7v17.8
	c-0.1,1.3,0.3,2.6,1.2,3.6c0.9,0.9,2.2,1.4,3.5,1.3h5.9c1.3,0.1,2.6-0.4,3.5-1.3c0.9-1,1.3-2.3,1.2-3.7v-2.4c0-0.4,0.2-0.6,0.5-0.6
	h1.4c0.4,0,0.5,0.2,0.5,0.6v2.5c0.1,1.9-0.6,3.8-1.9,5.2C418.4-433.1,416.6-432.4,414.7-432.5z"/>
<path class="st0" d="M436.7-432.5H428c-0.3,0-0.5-0.2-0.5-0.4c0,0,0-0.1,0-0.1v-1.2c0-0.3,0.2-0.5,0.5-0.5h8.5c3,0,4.5-1.2,4.5-3.5
	v-1.2c0.2-1.9-1-3.7-2.8-4.3l-6.3-2.4c-1.4-0.5-2.6-1.3-3.6-2.4c-0.8-1.1-1.2-2.4-1.1-3.8c0-3.9,2.1-5.9,6.5-5.9h8.1
	c0.3,0,0.5,0.1,0.5,0.4c0,0.1,0,0.1,0,0.2v1.1c0,0.3-0.2,0.5-0.5,0.5h-7.9c-1.1-0.1-2.2,0.2-3.1,0.9c-0.6,0.5-1,1.3-1,2.1v1.1
	c0,0.8,0.2,1.6,0.8,2.2c0.7,0.6,1.5,1.1,2.4,1.4l6.3,2.5c1.4,0.3,2.7,1.3,3.5,2.5c0.7,1.5,1,3.1,0.9,4.7c0.1,1.7-0.5,3.3-1.7,4.5
	C440.4-432.9,438.6-432.4,436.7-432.5z"/>
<path class="st0" d="M451.2-455.8h-3.1c-0.4,0-0.5-0.2-0.5-0.5v-1.2c0-0.3,0.1-0.5,0.4-0.6c0.1,0,0.1,0,0.2,0h3.1
	c0.2,0,0.4-0.1,0.5-0.3c0,0,0-0.1,0-0.1v-4.1c0-0.4,0.2-0.6,0.5-0.6h1.5c0.4,0,0.5,0.2,0.5,0.6v4.1c0,0.2,0.1,0.4,0.3,0.5
	c0,0,0.1,0,0.1,0h6c0.3,0,0.5,0.2,0.5,0.4c0,0,0,0.1,0,0.1v1.2c0,0.3-0.2,0.5-0.5,0.5h-6c-0.2,0-0.4,0.1-0.5,0.3c0,0,0,0.1,0,0.1
	v15.8c-0.1,1.3,0.4,2.6,1.3,3.5c1,0.9,2.3,1.3,3.6,1.2h2c0.3,0,0.5,0.2,0.6,0.4c0,0,0,0.1,0,0.1v1.1c0,0.3-0.2,0.5-0.4,0.6
	c0,0-0.1,0-0.1,0H459c-1.9,0.1-3.8-0.6-5.3-1.9c-1.4-1.3-2.1-3.2-2-5.1v-15.9c0-0.2-0.1-0.4-0.3-0.5
	C451.3-455.8,451.2-455.8,451.2-455.8z"/>
<path class="st0" d="M469.4-432.5h-1.5c-0.3,0-0.5-0.2-0.5-0.6v-24.3c0-0.4,0.2-0.6,0.5-0.6h1.5c0.4,0,0.5,0.2,0.5,0.6v2.1h0.2
	c0.5-0.8,1.1-1.4,2-1.9c1.1-0.6,2.3-0.9,3.5-0.8h2c0.3,0,0.5,0.1,0.5,0.4c0,0.1,0,0.1,0,0.2v1.2c0,0.4-0.2,0.5-0.5,0.5h-2.3
	c-1.4-0.1-2.8,0.5-3.8,1.5c-1,1.1-1.4,2.5-1.4,4v17.1C469.9-432.7,469.7-432.5,469.4-432.5z"/>
<path class="st0" d="M500.1-432.5h-10.5c-1.9,0.1-3.8-0.6-5.1-1.9c-1.3-1.4-2-3.3-1.9-5.2v-11.3c-0.1-1.9,0.6-3.8,1.9-5.2
	c1.4-1.3,3.2-2,5.1-1.9h4.3c1.9-0.1,3.8,0.6,5.2,1.9c1.3,1.4,2,3.3,1.9,5.2v6.4c0,0.3-0.2,0.6-0.4,0.6c0,0-0.1,0-0.2,0h-14.8
	c-0.2,0-0.4,0.1-0.5,0.3c0,0,0,0.1,0,0.1v3.9c-0.1,1.3,0.3,2.6,1.2,3.6c0.9,0.9,2.2,1.4,3.5,1.3h10.3c0.3,0,0.5,0.2,0.6,0.4
	c0,0,0,0.1,0,0.1v1.1c0,0.3-0.2,0.5-0.4,0.5C500.2-432.5,500.1-432.5,500.1-432.5z M485.5-446H498c0.2,0,0.4-0.1,0.5-0.3
	c0,0,0-0.1,0-0.1v-4.5c0.1-1.3-0.3-2.6-1.2-3.6c-0.9-0.9-2.2-1.4-3.5-1.3h-4c-1.3-0.1-2.6,0.4-3.5,1.3c-0.9,1-1.3,2.3-1.2,3.6v4.5
	c0,0.2,0.1,0.4,0.3,0.5C485.4-446,485.5-446,485.5-446z"/>
<path class="st0" d="M517.4-432.5h-3.2c-1.9,0.1-3.8-0.6-5.1-1.9c-1.3-1.4-2-3.3-1.9-5.2v-11.3c-0.1-1.9,0.6-3.8,1.9-5.2
	c1.4-1.3,3.2-2,5.1-1.9h10.6c0.3,0,0.5,0.2,0.5,0.6v24.3c0,0.4-0.2,0.6-0.5,0.6h-1.5c-0.4,0-0.5-0.2-0.5-0.6v-2h-0.2
	C521.8-433.4,520-432.5,517.4-432.5z M522.8-439.7v-15.7c0-0.3-0.2-0.5-0.5-0.5h-7.9c-1.3-0.1-2.6,0.4-3.5,1.3
	c-0.9,1-1.3,2.3-1.2,3.6v11.1c-0.1,1.3,0.3,2.6,1.2,3.6c0.9,0.9,2.2,1.4,3.5,1.3h3.3c1.4,0.1,2.7-0.4,3.8-1.3
	C522.4-437,522.9-438.3,522.8-439.7z"/>
<path class="st0" d="M534.8-432.5h-1.5c-0.3,0-0.5-0.2-0.5-0.6v-24.3c0-0.4,0.2-0.6,0.5-0.6h1.5c0.4,0,0.5,0.2,0.5,0.6v2h0.2
	c1-1.7,2.7-2.6,5.3-2.6h2c2.9,0,5,1.2,6.1,3.5c0.5-1.2,1.4-2.1,2.5-2.6c1.2-0.6,2.4-0.9,3.7-0.9h1.9c1.9-0.1,3.7,0.6,5.1,1.9
	c1.3,1.4,2,3.3,1.9,5.2v17.8c0,0.4-0.2,0.6-0.5,0.6h-1.5c-0.4,0-0.5-0.2-0.5-0.6v-17.7c0.1-1.3-0.3-2.7-1.2-3.7
	c-0.9-0.9-2.2-1.4-3.5-1.3H555c-1.4-0.1-2.8,0.4-3.8,1.4c-1,1-1.5,2.3-1.4,3.7v17.6c0,0.4-0.2,0.6-0.5,0.6h-1.5
	c-0.4,0-0.5-0.2-0.5-0.6v-17.7c0.1-1.3-0.3-2.7-1.2-3.7c-0.9-0.9-2.2-1.4-3.5-1.3h-2c-1.4-0.1-2.7,0.4-3.8,1.3c-1,1-1.5,2.3-1.4,3.6
	v17.8C535.4-432.7,535.2-432.5,534.8-432.5z"/>
<path class="st0" d="M579.6-432.5h-8.7c-0.3,0-0.5-0.2-0.5-0.4c0,0,0-0.1,0-0.1v-1.2c0-0.3,0.2-0.5,0.5-0.5h8.5c3,0,4.5-1.2,4.5-3.5
	v-1.2c0.2-1.9-1-3.7-2.8-4.3l-6.3-2.4c-1.4-0.5-2.6-1.3-3.6-2.4c-0.8-1.1-1.2-2.4-1.1-3.8c0-3.9,2.2-5.9,6.5-5.9h8.1
	c0.3,0,0.5,0.1,0.5,0.4c0,0.1,0,0.1,0,0.2v1.1c0,0.3-0.2,0.5-0.5,0.5h-7.9c-1.1-0.1-2.2,0.2-3.1,0.9c-0.6,0.5-1,1.3-1,2.1v1.1
	c-0.1,0.8,0.2,1.6,0.8,2.2c0.7,0.6,1.5,1.1,2.4,1.4l6.3,2.5c1.4,0.4,2.7,1.3,3.5,2.5c0.7,1.5,0.9,3.1,0.9,4.7
	c0.1,1.7-0.5,3.3-1.7,4.5C583.3-432.9,581.5-432.4,579.6-432.5z"/>
<path class="st0" d="M176.6-484.5h-18.2c-4.2,0-7.4-1.2-9.7-3.5s-3.4-5.5-3.4-9.6v-16.9c0-4.2,1.1-7.4,3.4-9.7
	c2.3-2.3,5.5-3.4,9.7-3.4h6.9c4.2,0,7.4,1.1,9.7,3.4c2.3,2.3,3.5,5.5,3.5,9.7v10.7c0.1,0.7-0.4,1.4-1.1,1.5c-0.1,0-0.3,0-0.4,0
	h-22.6c-0.6,0-0.9,0.3-0.9,0.8v3.6c0,4.1,2.1,6.2,6.2,6.2h17.1c0.7-0.1,1.4,0.3,1.6,1.1c0,0.1,0,0.3,0,0.4v4.2
	C178.2-485,177.6-484.5,176.6-484.5z M154.3-508h15.1c0.4,0.1,0.8-0.2,0.8-0.6c0-0.1,0-0.1,0-0.2v-5.4c0.1-1.7-0.4-3.4-1.4-4.7
	c-1-1-2.5-1.5-4.7-1.5h-4.6c-2.1,0-3.7,0.5-4.7,1.5c-1.1,1.3-1.6,3-1.4,4.7v5.4c-0.1,0.4,0.2,0.8,0.6,0.8
	C154.1-508,154.2-508,154.3-508z M194.5-484.5h-5.3c-0.7,0.1-1.3-0.4-1.4-1.1c0-0.1,0-0.2,0-0.4v-40.2c-0.1-0.7,0.4-1.3,1.1-1.4
	c0.1,0,0.2,0,0.4,0h5.3c0.7-0.1,1.3,0.4,1.4,1.1c0,0.1,0,0.2,0,0.4v3h0.3c1.3-3,4.2-4.5,8.5-4.5h3.7c4.1,0,7.3,1.1,9.5,3.4
	c2.2,2.3,3.3,5.5,3.3,9.7v28.6c0,1-0.5,1.4-1.5,1.4h-5.3c-0.7,0.1-1.3-0.4-1.4-1.1c0-0.1,0-0.2,0-0.4v-28.2c0-4.2-2.1-6.2-6.2-6.2
	h-4c-4.6,0-6.9,2.4-6.9,7.2v27.3c0.1,0.7-0.4,1.3-1.1,1.4C194.7-484.5,194.6-484.5,194.5-484.5z M251.1-484.5h-7.4
	c-4.2,0-7.4-1.2-9.7-3.5c-2.3-2.3-3.4-5.5-3.4-9.6v-16.9c0-4.2,1.1-7.4,3.4-9.7c2.3-2.3,5.5-3.4,9.7-3.4h7.4c4.1,0,7.3,1.1,9.7,3.4
	c2.3,2.3,3.5,5.5,3.5,9.7v16.9c0,4.1-1.2,7.3-3.5,9.6S255.2-484.5,251.1-484.5z M244.8-491.7h5.1c4.1,0,6.1-2.1,6.1-6.2v-16.4
	c0-4.1-2-6.2-6.1-6.2h-5.1c-2.1,0-3.7,0.5-4.6,1.5c-1,1-1.4,2.5-1.4,4.7v16.4c0,2.1,0.5,3.7,1.4,4.7
	C241.1-492.2,242.7-491.7,244.8-491.7z M280.7-484.5h-5.3c-0.7,0.1-1.3-0.4-1.4-1.1c0-0.1,0-0.2,0-0.4v-40.2
	c-0.1-0.7,0.4-1.3,1.1-1.4c0.1,0,0.2,0,0.4,0h5.3c0.7-0.1,1.3,0.4,1.5,1c0,0.1,0,0.3,0,0.4v3.2h0.3c0.6-1.5,1.8-2.7,3.2-3.4
	c1.7-0.9,3.5-1.3,5.4-1.3h3.1c0.7-0.1,1.3,0.4,1.4,1.1c0,0.1,0,0.2,0,0.4v4.4c0,1.1-0.5,1.5-1.4,1.3h-5.1c-4.7,0-7,2.6-7,7.7v26.8
	c0.1,0.7-0.4,1.3-1.1,1.4C281-484.5,280.8-484.5,280.7-484.5z M317.8-484.5h-3.3c-4.2,0-7.4-1.2-9.7-3.5s-3.4-5.5-3.4-9.6v-16.9
	c0-4.2,1.1-7.4,3.4-9.7c2.3-2.3,5.5-3.4,9.7-3.4h18.9c1,0,1.5,0.5,1.5,1.4v40.2c0,1-0.5,1.4-1.5,1.4h-5.3c-0.7,0.1-1.3-0.4-1.4-1.1
	c0-0.1,0-0.2,0-0.4v-3h-0.3C324.9-486,322.1-484.5,317.8-484.5L317.8-484.5z M326.6-498.9v-20.7c0-0.6-0.3-0.8-0.9-0.8h-10
	c-4.1,0-6.1,2.1-6.1,6.2v16.2c0,4.2,2,6.2,6.1,6.2h4.1C324.3-491.7,326.6-494.1,326.6-498.9L326.6-498.9z M360.8-484.5h-15.5
	c-0.7,0.1-1.3-0.4-1.4-1.1c0-0.1,0-0.2,0-0.4v-4.1c0-0.9,0.5-1.4,1.4-1.4h14.2c3.7,0,5.5-1.3,5.5-3.8v-1c0-2.2-1.3-4-4-5.1l-9.2-4.4
	c-2.4-1-4.5-2.5-6.2-4.5c-1.4-1.9-2-4.1-1.9-6.4c0-7.3,4-10.9,12.1-10.9h14c0.9,0,1.4,0.5,1.4,1.4v4.1c0,1-0.5,1.4-1.4,1.4h-12.3
	c-1.4-0.1-2.7,0.2-3.9,0.9c-0.8,0.5-1.3,1.4-1.3,2.3v0.9c0,1.8,1.4,3.4,4.3,4.7l9.3,4.7c2.9,1.3,4.9,2.8,6,4.6
	c1.2,2.1,1.7,4.5,1.6,6.9C373.4-488.2,369.2-484.5,360.8-484.5L360.8-484.5z M387.2-470.8h-4.5c-0.7,0.1-1.3-0.4-1.4-1.1
	c0-0.1,0-0.2,0-0.4v-4.3c0-1,0.5-1.5,1.4-1.5h1.9c3.4,0,5.8-0.7,7.1-2c1.6-1.9,2.8-4.2,3.3-6.7h-3.4c-0.9,0-1.6-0.6-1.8-1.4
	l-11.2-37.9c-0.2-1,0.1-1.4,1.1-1.4h5.6c0.9,0,1.6,0.6,1.7,1.4l9.2,33.1h0.3l9.2-33.1c0.1-0.9,0.8-1.5,1.7-1.4c0,0,0,0,0,0h5.4
	c1.1,0,1.5,0.5,1.4,1.5l-11.6,40.6c-1.3,4.7-3.1,8.3-5.5,10.8C395-472.1,391.6-470.8,387.2-470.8L387.2-470.8z M437-484.5h-15.5
	c-0.7,0.1-1.3-0.4-1.4-1.1c0-0.1,0-0.2,0-0.4v-4.1c0-0.9,0.5-1.4,1.4-1.4h14.2c3.7,0,5.5-1.3,5.5-3.8v-1c0-2.2-1.3-4-4-5.1l-9.2-4.4
	c-2.4-1-4.5-2.5-6.2-4.5c-1.4-1.9-2-4.1-1.9-6.4c0-7.3,4-10.9,12.1-10.9h14c0.9,0,1.4,0.5,1.4,1.4v4.1c0,1-0.5,1.4-1.4,1.4h-12.3
	c-1.4-0.1-2.7,0.2-3.9,0.9c-0.8,0.5-1.4,1.4-1.4,2.3v0.9c0,1.8,1.4,3.4,4.3,4.7l9.3,4.7c2.9,1.3,4.9,2.8,6,4.6
	c1.2,2.1,1.8,4.5,1.6,6.9C449.5-488.2,445.4-484.5,437-484.5L437-484.5z"/>
<g>
	<defs>
		<path id="SVGID_1_" d="M176.6-484.5h-18.2c-4.2,0-7.4-1.2-9.7-3.5s-3.4-5.5-3.4-9.6v-16.9c0-4.2,1.1-7.4,3.4-9.7
			c2.3-2.3,5.5-3.4,9.7-3.4h6.9c4.2,0,7.4,1.1,9.7,3.4c2.3,2.3,3.5,5.5,3.5,9.7v10.7c0.1,0.7-0.4,1.4-1.1,1.5c-0.1,0-0.3,0-0.4,0
			h-22.6c-0.6,0-0.9,0.3-0.9,0.8v3.6c0,4.1,2.1,6.2,6.2,6.2h17.1c0.7-0.1,1.4,0.3,1.6,1.1c0,0.1,0,0.3,0,0.4v4.2
			C178.2-485,177.6-484.5,176.6-484.5z M154.3-508h15.1c0.4,0.1,0.8-0.2,0.8-0.6c0-0.1,0-0.1,0-0.2v-5.4c0.1-1.7-0.4-3.4-1.4-4.7
			c-1-1-2.5-1.5-4.7-1.5h-4.6c-2.1,0-3.7,0.5-4.7,1.5c-1.1,1.3-1.6,3-1.4,4.7v5.4c-0.1,0.4,0.2,0.8,0.6,0.8
			C154.1-508,154.2-508,154.3-508z M194.5-484.5h-5.3c-0.7,0.1-1.3-0.4-1.4-1.1c0-0.1,0-0.2,0-0.4v-40.2c-0.1-0.7,0.4-1.3,1.1-1.4
			c0.1,0,0.2,0,0.4,0h5.3c0.7-0.1,1.3,0.4,1.4,1.1c0,0.1,0,0.2,0,0.4v3h0.3c1.3-3,4.2-4.5,8.5-4.5h3.7c4.1,0,7.3,1.1,9.5,3.4
			c2.2,2.3,3.3,5.5,3.3,9.7v28.6c0,1-0.5,1.4-1.5,1.4h-5.3c-0.7,0.1-1.3-0.4-1.4-1.1c0-0.1,0-0.2,0-0.4v-28.2c0-4.2-2.1-6.2-6.2-6.2
			h-4c-4.6,0-6.9,2.4-6.9,7.2v27.3c0.1,0.7-0.4,1.3-1.1,1.4C194.7-484.5,194.6-484.5,194.5-484.5z M251.1-484.5h-7.4
			c-4.2,0-7.4-1.2-9.7-3.5c-2.3-2.3-3.4-5.5-3.4-9.6v-16.9c0-4.2,1.1-7.4,3.4-9.7c2.3-2.3,5.5-3.4,9.7-3.4h7.4
			c4.1,0,7.3,1.1,9.7,3.4c2.3,2.3,3.5,5.5,3.5,9.7v16.9c0,4.1-1.2,7.3-3.5,9.6S255.2-484.5,251.1-484.5z M244.8-491.7h5.1
			c4.1,0,6.1-2.1,6.1-6.2v-16.4c0-4.1-2-6.2-6.1-6.2h-5.1c-2.1,0-3.7,0.5-4.6,1.5c-1,1-1.4,2.5-1.4,4.7v16.4c0,2.1,0.5,3.7,1.4,4.7
			C241.1-492.2,242.7-491.7,244.8-491.7z M280.7-484.5h-5.3c-0.7,0.1-1.3-0.4-1.4-1.1c0-0.1,0-0.2,0-0.4v-40.2
			c-0.1-0.7,0.4-1.3,1.1-1.4c0.1,0,0.2,0,0.4,0h5.3c0.7-0.1,1.3,0.4,1.5,1c0,0.1,0,0.3,0,0.4v3.2h0.3c0.6-1.5,1.8-2.7,3.2-3.4
			c1.7-0.9,3.5-1.3,5.4-1.3h3.1c0.7-0.1,1.3,0.4,1.4,1.1c0,0.1,0,0.2,0,0.4v4.4c0,1.1-0.5,1.5-1.4,1.3h-5.1c-4.7,0-7,2.6-7,7.7v26.8
			c0.1,0.7-0.4,1.3-1.1,1.4C281-484.5,280.8-484.5,280.7-484.5z M317.8-484.5h-3.3c-4.2,0-7.4-1.2-9.7-3.5s-3.4-5.5-3.4-9.6v-16.9
			c0-4.2,1.1-7.4,3.4-9.7c2.3-2.3,5.5-3.4,9.7-3.4h18.9c1,0,1.5,0.5,1.5,1.4v40.2c0,1-0.5,1.4-1.5,1.4h-5.3
			c-0.7,0.1-1.3-0.4-1.4-1.1c0-0.1,0-0.2,0-0.4v-3h-0.3C324.9-486,322.1-484.5,317.8-484.5L317.8-484.5z M326.6-498.9v-20.7
			c0-0.6-0.3-0.8-0.9-0.8h-10c-4.1,0-6.1,2.1-6.1,6.2v16.2c0,4.2,2,6.2,6.1,6.2h4.1C324.3-491.7,326.6-494.1,326.6-498.9
			L326.6-498.9z M360.8-484.5h-15.5c-0.7,0.1-1.3-0.4-1.4-1.1c0-0.1,0-0.2,0-0.4v-4.1c0-0.9,0.5-1.4,1.4-1.4h14.2
			c3.7,0,5.5-1.3,5.5-3.8v-1c0-2.2-1.3-4-4-5.1l-9.2-4.4c-2.4-1-4.5-2.5-6.2-4.5c-1.4-1.9-2-4.1-1.9-6.4c0-7.3,4-10.9,12.1-10.9h14
			c0.9,0,1.4,0.5,1.4,1.4v4.1c0,1-0.5,1.4-1.4,1.4h-12.3c-1.4-0.1-2.7,0.2-3.9,0.9c-0.8,0.5-1.3,1.4-1.3,2.3v0.9
			c0,1.8,1.4,3.4,4.3,4.7l9.3,4.7c2.9,1.3,4.9,2.8,6,4.6c1.2,2.1,1.7,4.5,1.6,6.9C373.4-488.2,369.2-484.5,360.8-484.5L360.8-484.5z
			 M387.2-470.8h-4.5c-0.7,0.1-1.3-0.4-1.4-1.1c0-0.1,0-0.2,0-0.4v-4.3c0-1,0.5-1.5,1.4-1.5h1.9c3.4,0,5.8-0.7,7.1-2
			c1.6-1.9,2.8-4.2,3.3-6.7h-3.4c-0.9,0-1.6-0.6-1.8-1.4l-11.2-37.9c-0.2-1,0.1-1.4,1.1-1.4h5.6c0.9,0,1.6,0.6,1.7,1.4l9.2,33.1h0.3
			l9.2-33.1c0.1-0.9,0.8-1.5,1.7-1.4c0,0,0,0,0,0h5.4c1.1,0,1.5,0.5,1.4,1.5l-11.6,40.6c-1.3,4.7-3.1,8.3-5.5,10.8
			C395-472.1,391.6-470.8,387.2-470.8L387.2-470.8z M437-484.5h-15.5c-0.7,0.1-1.3-0.4-1.4-1.1c0-0.1,0-0.2,0-0.4v-4.1
			c0-0.9,0.5-1.4,1.4-1.4h14.2c3.7,0,5.5-1.3,5.5-3.8v-1c0-2.2-1.3-4-4-5.1l-9.2-4.4c-2.4-1-4.5-2.5-6.2-4.5c-1.4-1.9-2-4.1-1.9-6.4
			c0-7.3,4-10.9,12.1-10.9h14c0.9,0,1.4,0.5,1.4,1.4v4.1c0,1-0.5,1.4-1.4,1.4h-12.3c-1.4-0.1-2.7,0.2-3.9,0.9
			c-0.8,0.5-1.4,1.4-1.4,2.3v0.9c0,1.8,1.4,3.4,4.3,4.7l9.3,4.7c2.9,1.3,4.9,2.8,6,4.6c1.2,2.1,1.8,4.5,1.6,6.9
			C449.5-488.2,445.4-484.5,437-484.5L437-484.5z"/>
	</defs>
	<clipPath id="SVGID_00000070805756097109821210000001701478277808404629_">
		<use xlink:href="#SVGID_1_"  style="overflow:visible;"/>
	</clipPath>
	<g style="clip-path:url(#SVGID_00000070805756097109821210000001701478277808404629_);">
		<rect x="135.7" y="-548.5" class="st0" width="319.4" height="81.6"/>
	</g>
</g>
<polyline class="st2" points="459.9,-521 478.2,-521 493.7,-521 493.7,-491.4 510.6,-508.3 525.4,-523.1 546.7,-523.1 546.7,-504.1 
	561.2,-522.4 579.4,-507.8 "/>
<path class="st3" d="M487.9-521.9c0-3.1,2.5-5.7,5.7-5.7s5.7,2.5,5.7,5.7c0,3.1-2.5,5.7-5.7,5.7S487.9-518.7,487.9-521.9
	C487.9-521.9,487.9-521.9,487.9-521.9z"/>
<path class="st3" d="M489.9-492.2c0-3.1,2.5-5.7,5.7-5.7s5.7,2.5,5.7,5.7c0,3.1-2.5,5.7-5.7,5.7
	C492.4-486.5,489.9-489.1,489.9-492.2C489.9-492.2,489.9-492.2,489.9-492.2z"/>
<path class="st3" d="M471-521.9c0-3.1,2.5-5.7,5.7-5.7s5.7,2.5,5.7,5.7c0,3.1-2.5,5.7-5.7,5.7S471-518.7,471-521.9
	C471-521.9,471-521.9,471-521.9z"/>
<path class="st3" d="M454.3-521.9c0-3.1,2.5-5.7,5.7-5.7s5.7,2.5,5.7,5.7c0,3.1-2.5,5.7-5.7,5.7S454.3-518.7,454.3-521.9
	C454.3-521.9,454.3-521.9,454.3-521.9z"/>
<path class="st3" d="M558.2-521.9c0-3.1,2.5-5.7,5.7-5.7c3.1,0,5.7,2.5,5.7,5.7c0,3.1-2.5,5.7-5.7,5.7
	C560.7-516.2,558.2-518.7,558.2-521.9C558.2-521.9,558.2-521.9,558.2-521.9z"/>
<path class="st3" d="M541.8-521.9c0-3.1,2.5-5.7,5.7-5.7c3.1,0,5.7,2.5,5.7,5.7c0,3.1-2.5,5.7-5.7,5.7
	C544.3-516.2,541.8-518.7,541.8-521.9C541.8-521.9,541.8-521.9,541.8-521.9z"/>
<path class="st3" d="M522.2-521.9c0-3.1,2.5-5.7,5.7-5.7c3.1,0,5.7,2.5,5.7,5.7c0,3.1-2.5,5.7-5.7,5.7
	C524.8-516.2,522.2-518.7,522.2-521.9C522.2-521.9,522.2-521.9,522.2-521.9z"/>
<path class="st3" d="M576.6-507.1c0-3.1,2.5-5.7,5.7-5.7c3.1,0,5.7,2.5,5.7,5.7c0,3.1-2.5,5.7-5.7,5.7c0,0,0,0,0,0
	C579.2-501.4,576.6-503.9,576.6-507.1C576.6-507.1,576.6-507.1,576.6-507.1z"/>
<path class="st3" d="M541.1-507.1c0-3.1,2.5-5.7,5.7-5.7s5.7,2.5,5.7,5.7c0,3.1-2.5,5.7-5.7,5.7c0,0,0,0,0,0
	C543.6-501.4,541.1-503.9,541.1-507.1C541.1-507.1,541.1-507.1,541.1-507.1z"/>
<path class="st3" d="M506.2-507.1c0-3.1,2.5-5.7,5.7-5.7s5.7,2.5,5.7,5.7c0,3.1-2.5,5.7-5.7,5.7c0,0,0,0,0,0
	C508.7-501.4,506.2-503.9,506.2-507.1C506.2-507.1,506.2-507.1,506.2-507.1z"/>
<path class="st4" d="M68.6,168.2l-1-0.2c-30.7-10.9-52-39.9-61.9-84.2C1.1,63-0.6,41.7,0.2,20.6v-1.9l1.7-1
	C29.4,1.5,62.3-3.8,93.8,2.7c14.3,2.7,27.8,7.7,40.4,15l1.5,1v1.9c1.5,29-1,54.9-7.3,76.9c-4.4,16.4-12.3,31.7-22.7,44.8
	c-17.2,20.8-35.3,25.6-36,25.9H68.6z M7.2,22.8c-0.5,20.1,1.5,39.9,5.6,59.5c3.4,16.7,9.7,32.4,18.6,46.9
	c8.7,14.5,21.8,25.4,37.5,31.4c3.9-1.2,18.1-7,31.7-23.5c26.1-31.9,29.8-79.6,28.1-114.4c-11.4-6.3-23.7-10.6-36.5-13.3
	C63.1,3.4,32.8,8,7.2,22.8z"/>
<path class="st4" d="M68.6,168.2l-1-0.2c-30.7-10.9-52-39.9-61.9-84.2C1.1,63-0.6,41.7,0.2,20.6v-1.9l1.7-1
	C29.4,1.5,62.3-3.8,93.8,2.7c14.3,2.7,27.8,7.7,40.4,15l1.5,1v1.9c1.5,29-1,54.9-7.3,76.9c-4.4,16.4-12.3,31.7-22.7,44.8
	c-17.2,20.8-35.3,25.6-36,25.9H68.6z M7.2,22.8c-0.5,20.1,1.5,39.9,5.6,59.5c3.4,16.7,9.7,32.4,18.6,46.9
	c8.7,14.5,21.8,25.4,37.5,31.4c3.9-1.2,18.1-7,31.7-23.5c26.1-31.9,29.8-79.6,28.1-114.4c-11.4-6.3-23.7-10.6-36.5-13.3
	C63.1,3.4,32.8,8,7.2,22.8z"/>
<path class="st5" d="M119.7,60c-1.6,0-3.1,0.8-3.9,2.1l-8-6.4c0.8-0.8,1.3-2,1.3-3.3c0-2.6-2.1-4.7-4.7-4.7c-2.6,0-4.7,2.1-4.7,4.7
	c0,0,0,0,0,0c0,0.5,0.1,1,0.3,1.5l-6.1,7.7c-0.8-0.9-1.9-1.5-3.1-1.6v-2.9c0,0,0.1,0,0.1,0c2.6,0,4.7-2.1,4.7-4.7
	c0-2.6-2.1-4.7-4.7-4.7c-2,0-3.8,1.3-4.4,3.1H79c-0.7-1.8-2.4-3.1-4.4-3.1c-2.6,0-4.7,2.1-4.7,4.7c0,0,0,0,0,0c0,0.2,0,0.5,0.1,0.7
	l-7.1,7.1c-0.5-0.2-1-0.3-1.5-0.3c-2.6,0-4.7,2.1-4.7,4.7c0,0,0,0,0,0c0,0.5,0.1,1.1,0.3,1.5L50.1,73c-0.7-0.4-1.5-0.6-2.4-0.6
	c-0.3,0-0.7,0-1,0.1V57.2c2.3-0.3,4-2.3,4-4.7c0-2.6-2.1-4.7-4.7-4.7c-2.6,0-4.7,2.1-4.7,4.7c0,0,0,0,0,0c0,0,0,0.1,0,0.1h-4.6
	c0,0,0-0.1,0-0.1c0-2.6-2.1-4.7-4.7-4.7c-2.6,0-4.7,2.1-4.7,4.7c0,0,0,0,0,0c0,0,0,0.1,0,0.1h-4.4c0,0,0-0.1,0-0.1
	c0-2.6-2.1-4.7-4.7-4.7c-2.6,0-4.7,2.1-4.7,4.7c0,0,0,0,0,0c0,2.6,2.1,4.7,4.7,4.7c2.2,0,4-1.4,4.5-3.4h4.8c0.6,2,2.4,3.4,4.5,3.4
	c2.2,0,4-1.4,4.5-3.4h4.9c0.5,1.8,2.1,3.2,4.1,3.4v15.7C44,73.6,43,75.2,43,77.1c0,0,0,0,0,0c0,2.6,2.1,4.7,4.7,4.7
	c2.6,0,4.7-2.1,4.7-4.7c0-1.3-0.5-2.5-1.4-3.4l6.3-6.3c0.8,1.2,2.3,2.1,3.9,2.1c0,0,0,0,0,0c2.6,0,4.7-2.1,4.7-4.7
	c0-1.6-0.8-3.1-2.1-3.9l6.4-6.4c0.7,1.6,2.4,2.8,4.3,2.8c2.6,0,4.7-2.1,4.7-4.7c0-0.1,0-0.3,0-0.4h6.8c0,0.1,0,0.3,0,0.4
	c0,0,0,0,0,0c0,2.2,1.5,4,3.4,4.5v3.1c-2.3,0.3-4,2.3-4,4.7c0,0,0,0,0,0c0,2.6,2.1,4.7,4.7,4.7c0,0,0,0,0,0c2.6,0,4.7-2.1,4.7-4.7
	c0-0.7-0.2-1.4-0.5-2l6-7.6c0.9,1.2,2.3,2.1,3.9,2.1c0.9,0,1.8-0.3,2.5-0.7l8.4,6.7c-0.2,0.5-0.3,1-0.3,1.5c0,0,0,0,0,0
	c0,2.6,2.1,4.7,4.7,4.7c0,0,0,0,0,0c2.6,0,4.7-2.1,4.7-4.7C124.4,62.2,122.3,60,119.7,60z"/>
</svg>
