<?xml version="1.0" encoding="utf-8"?>
<!-- Generator: Adobe Illustrator 25.2.0, SVG Export Plug-In . SVG Version: 6.00 Build 0)  -->
<svg version="1.1" id="Layer_1" xmlns="http://www.w3.org/2000/svg" xmlns:xlink="http://www.w3.org/1999/xlink" x="0px" y="0px"
	 viewBox="0 0 56.3 69.6" style="enable-background:new 0 0 56.3 69.6;" xml:space="preserve">
<style type="text/css">
	.st0{fill:#0070FE;}
	.st1{fill:#0070FE;stroke:#0070FE;stroke-miterlimit:10;}
</style>
<path class="st0" d="M28.4,69.6L28,69.5C15.3,65,6.5,53,2.4,34.7C0.5,26.1-0.2,17.3,0.1,8.6V7.8l0.7-0.4c11.4-6.7,25-8.9,38-6.2
	c5.9,1.1,11.5,3.2,16.7,6.2l0.6,0.4v0.8c0.6,12-0.4,22.7-3,31.8c-1.8,6.8-5.1,13.1-9.4,18.5c-7.1,8.6-14.6,10.6-14.9,10.7H28.4z
	 M3,9.5C2.8,17.8,3.6,26,5.3,34.1c1.4,6.9,4,13.4,7.7,19.4c3.6,6,9,10.5,15.5,13c1.6-0.5,7.5-2.9,13.1-9.7
	C52.4,43.6,53.9,23.9,53.2,9.5C48.5,6.9,43.4,5.1,38.1,4C26.1,1.5,13.6,3.4,3,9.5z"/>
<path class="st0" d="M15.7,43.8V12.7c0-0.6,0.4-1,1-1h16.4c0.3,0,0.5,0.1,0.7,0.3l7.9,7.6c0.2,0.2,0.3,0.4,0.3,0.7v23.5
	c0,0.6-0.4,1-1,1H16.8C16.2,44.7,15.8,44.3,15.7,43.8z M40,20.6l-7.3-7h-15v29.2H40V20.6z"/>
<path class="st0" d="M32.1,20.6l-0.1-8c0-0.3,0.1-0.5,0.3-0.7c0.4-0.4,1-0.4,1.4,0l7.7,8c0.3,0.3,0.4,0.7,0.2,1.1
	c-0.1,0.4-0.5,0.6-0.9,0.6H33C32.5,21.6,32.1,21.2,32.1,20.6z M34,15.1v4.5h4.3L34,15.1z"/>
<path class="st0" d="M34.8,27h-6.1c-0.6,0-1-0.4-1-1s0.4-1,1-1h6.1c0.6,0,1,0.4,1,1S35.3,27,34.8,27L34.8,27z"/>
<path class="st1" d="M22.7,27.3c-0.1,0-0.2,0-0.3-0.2l-1.2-1.3c-0.2-0.2-0.2-0.5,0-0.7c0.2-0.2,0.5-0.2,0.7,0l0.8,0.9l2.9-3.3
	c0.2-0.2,0.5-0.2,0.7,0c0.2,0.2,0.2,0.5,0,0.7l0,0L23,27.2C23,27.2,22.9,27.3,22.7,27.3L22.7,27.3z"/>
<path class="st0" d="M34.8,32.1h-6.1c-0.6,0-1-0.4-1-1s0.4-1,1-1h6.1c0.6,0,1,0.4,1,1S35.3,32.1,34.8,32.1L34.8,32.1z"/>
<path class="st0" d="M34.8,37.2h-6.1c-0.6,0-1-0.4-1-1s0.4-1,1-1h6.1c0.6,0,1,0.4,1,1S35.3,37.2,34.8,37.2L34.8,37.2z"/>
<path class="st1" d="M22.7,32.4c-0.1,0-0.2,0-0.3-0.2L21.2,31c-0.2-0.2-0.2-0.5,0-0.7c0.2-0.2,0.5-0.2,0.7,0l0.8,0.9l2.9-3.3
	c0.2-0.2,0.5-0.2,0.7,0c0.2,0.2,0.2,0.5,0,0.7l0,0L23,32.3C23,32.3,22.9,32.4,22.7,32.4L22.7,32.4z"/>
<path class="st1" d="M22.7,37.5c-0.1,0-0.2,0-0.3-0.2l-1.2-1.3c-0.2-0.2-0.2-0.5,0-0.7s0.5-0.2,0.7,0l0.8,0.9l2.9-3.3
	c0.2-0.2,0.5-0.2,0.7,0s0.2,0.5,0,0.7l0,0L23,37.4C23,37.4,22.9,37.5,22.7,37.5L22.7,37.5z"/>
</svg>
