<?xml version="1.0" encoding="utf-8"?>
<!-- Generator: Adobe Illustrator 25.4.1, SVG Export Plug-In . SVG Version: 6.00 Build 0)  -->
<svg version="1.1" id="Layer_1" xmlns="http://www.w3.org/2000/svg" xmlns:xlink="http://www.w3.org/1999/xlink" x="0px" y="0px"
	 viewBox="0 0 56.3 69.6" style="enable-background:new 0 0 56.3 69.6;" xml:space="preserve">
<style type="text/css">
	.st0{fill:#0070FE;}
</style>
<path class="st0" d="M28.4,69.6L28,69.5C15.3,65,6.5,53,2.4,34.7C0.5,26.1-0.2,17.3,0.1,8.6V7.8l0.7-0.4c11.4-6.7,25-8.9,38-6.2
	c5.9,1.1,11.5,3.2,16.7,6.2l0.6,0.4v0.8c0.6,12-0.4,22.7-3,31.8c-1.8,6.8-5.1,13.1-9.4,18.5c-7.1,8.6-14.6,10.6-14.9,10.7H28.4z
	 M3,9.5C2.8,17.8,3.6,26,5.3,34.1c1.4,6.9,4,13.4,7.7,19.4c3.6,6,9,10.5,15.5,13c1.6-0.5,7.5-2.9,13.1-9.7
	C52.4,43.6,53.9,23.9,53.2,9.5C48.5,6.9,43.4,5.1,38.1,4C26.1,1.5,13.6,3.4,3,9.5z"/>
<path class="st0" d="M42.2,12.5c-2.6,0-4.6,2-4.7,4.6c0,0.6,0.1,1.2,0.3,1.7l-4.1,3c-2.7-2.8-7.1-3-10-0.4L22,19.7
	c0.5-0.7,0.7-1.6,0.7-2.5c0-2.6-2.1-4.7-4.6-4.7s-4.7,2.1-4.7,4.6s2.1,4.7,4.6,4.7c0,0,0,0,0,0c0.9,0,1.7-0.3,2.5-0.7l1.8,1.8
	c-1.8,2.6-1.7,6.1,0.2,8.6l-1.4,1.4c-2.2-1.4-5-0.7-6.4,1.4c-1.4,2.2-0.7,5,1.4,6.4s5,0.7,6.4-1.4c1-1.5,1-3.5,0-5l1.4-1.4
	c1,0.8,2.2,1.3,3.5,1.4v8.1c-2.5,0.7-3.9,3.3-3.2,5.8c0.7,2.5,3.3,3.9,5.8,3.2c2.5-0.7,3.9-3.3,3.2-5.8c-0.5-1.7-2-3-3.7-3.3v-8
	c2.3-0.3,4.3-1.7,5.4-3.7l0.5,0.2c-0.1,0.3-0.1,0.6-0.1,0.9c0,2.6,2.1,4.7,4.6,4.7c2.6,0,4.7-2.1,4.7-4.6s-2.1-4.7-4.6-4.7
	c-1.5,0-2.9,0.7-3.8,1.9l-0.6-0.2c0.5-1.8,0.2-3.7-0.7-5.3l4-2.9c0.9,0.9,2,1.3,3.2,1.3c2.6,0.1,4.7-2,4.8-4.5
	c0.1-2.6-2-4.7-4.5-4.8C42.3,12.5,42.2,12.5,42.2,12.5L42.2,12.5z M39.9,29.1c1.5,0,2.6,1.2,2.6,2.6c0,1.5-1.2,2.6-2.6,2.6
	s-2.6-1.2-2.6-2.6C37.3,30.3,38.5,29.1,39.9,29.1z M15.4,17.2c0-1.5,1.2-2.6,2.6-2.6s2.6,1.2,2.6,2.6s-1.2,2.6-2.6,2.6
	C16.6,19.8,15.4,18.6,15.4,17.2z M18.6,39.4c-1.5,0-2.6-1.2-2.6-2.6c0-1.5,1.2-2.6,2.6-2.6s2.6,1.2,2.6,2.6c0,0,0,0,0,0
	C21.3,38.3,20.1,39.4,18.6,39.4L18.6,39.4L18.6,39.4z M31.3,46.9c0,1.5-1.2,2.6-2.6,2.6c-1.5,0-2.6-1.2-2.6-2.6s1.2-2.6,2.6-2.6
	C30.2,44.3,31.3,45.4,31.3,46.9L31.3,46.9z M28.4,31.4c-2.4,0-4.4-2-4.4-4.4c0-2.4,2-4.4,4.4-4.4s4.4,2,4.4,4.4c0,0,0,0,0,0
	C32.8,29.4,30.8,31.4,28.4,31.4L28.4,31.4z M42.2,19.8c-1.5,0-2.6-1.2-2.6-2.6s1.2-2.6,2.6-2.6c1.5,0,2.6,1.2,2.6,2.6
	C44.8,18.7,43.6,19.8,42.2,19.8L42.2,19.8z"/>
</svg>
